name Walk7.mot
datacolumns 19
datarows 17
range 2.66000000 2.67600000
endheader

                time	   L_ground_force_vx	   L_ground_force_vy	   L_ground_force_vz	   L_ground_force_px	   L_ground_force_py	   L_ground_force_pz	   R_ground_force_vx	   R_ground_force_vy	   R_ground_force_vz	   R_ground_force_px	   R_ground_force_py	   R_ground_force_pz	   L_ground_torque_x	   L_ground_torque_y	   L_ground_torque_z	   R_ground_torque_x	   R_ground_torque_y	   R_ground_torque_z	
          2.66000000	          0.00000000	          0.00000000	          0.00000000	          0.00000000	          0.00000000	          0.00000000	          0.00000000	          0.00000000	          0.00000000	          0.00000000	          0.00000000	          0.00000000	          0.00000000	          0.00000000	          0.00000000	          0.00000000	          0.00000000	          0.00000000	
          2.66100000	          0.00000000	          0.00000000	          0.00000000	          0.00000000	          0.00000000	          0.00000000	          0.00000000	          0.00000000	          0.00000000	          0.00000000	          0.00000000	          0.00000000	          0.00000000	          0.00000000	          0.00000000	          0.00000000	          0.00000000	          0.00000000	
          2.66200000	          0.00000000	          0.00000000	          0.00000000	          0.00000000	          0.00000000	          0.00000000	          0.00000000	          0.00000000	          0.00000000	          0.00000000	          0.00000000	          0.00000000	          0.00000000	          0.00000000	          0.00000000	          0.00000000	          0.00000000	          0.00000000	
          2.66300000	          0.00000000	          0.00000000	          0.00000000	          0.00000000	          0.00000000	          0.00000000	          0.00000000	          0.00000000	          0.00000000	          0.00000000	          0.00000000	          0.00000000	          0.00000000	          0.00000000	          0.00000000	          0.00000000	          0.00000000	          0.00000000	
          2.66400000	          0.00000000	          0.00000000	          0.00000000	          0.00000000	          0.00000000	          0.00000000	          0.00000000	          0.00000000	          0.00000000	          0.00000000	          0.00000000	          0.00000000	          0.00000000	          0.00000000	          0.00000000	          0.00000000	          0.00000000	          0.00000000	
          2.66500000	          0.00000000	          0.00000000	          0.00000000	          0.00000000	          0.00000000	          0.00000000	          0.00000000	          0.00000000	          0.00000000	          0.00000000	          0.00000000	          0.00000000	          0.00000000	          0.00000000	          0.00000000	          0.00000000	          0.00000000	          0.00000000	
          2.66600000	          0.00000000	          0.00000000	          0.00000000	          0.00000000	          0.00000000	          0.00000000	         -1.64380198	         13.69448517	         -4.05044512	         -0.39776400	          0.00000000	         -0.04595090	          0.00000000	          0.00000000	          0.00000000	          0.00000000	          0.10237866	          0.00000000	
          2.66700000	          0.00000000	          0.00000000	          0.00000000	          0.00000000	          0.00000000	          0.00000000	         -1.97263366	         21.12048378	         -5.86916945	         -0.38896654	          0.00000000	         -0.05068977	          0.00000000	          0.00000000	          0.00000000	          0.00000000	          0.09645454	          0.00000000	
          2.66800000	          0.00000000	          0.00000000	          0.00000000	          0.00000000	          0.00000000	          0.00000000	         -2.03544988	         29.58935779	         -7.65671003	         -0.37989156	          0.00000000	         -0.05536438	          0.00000000	          0.00000000	          0.00000000	          0.00000000	          0.06691409	          0.00000000	
          2.66900000	          0.00000000	          0.00000000	          0.00000000	          0.00000000	          0.00000000	          0.00000000	         -1.83497355	         39.46546634	         -9.37884470	         -0.37065664	          0.00000000	         -0.06010902	          0.00000000	          0.00000000	          0.00000000	          0.00000000	          0.02487204	          0.00000000	
          2.67000000	          0.00000000	          0.00000000	          0.00000000	          0.00000000	          0.00000000	          0.00000000	         -1.40366345	         51.60049665	        -11.07898022	         -0.36203384	          0.00000000	         -0.06486361	          0.00000000	          0.00000000	          0.00000000	          0.00000000	         -0.01353692	          0.00000000	
          2.67100000	          0.00000000	          0.00000000	          0.00000000	          0.00000000	          0.00000000	          0.00000000	         -0.74372479	         67.12704804	        -12.78544148	         -0.35485096	          0.00000000	         -0.06931404	          0.00000000	          0.00000000	          0.00000000	          0.00000000	         -0.03446934	          0.00000000	
          2.67200000	          0.00000000	          0.00000000	          0.00000000	          0.00000000	          0.00000000	          0.00000000	          0.16320714	         87.23864313	        -14.46254303	         -0.34951284	          0.00000000	         -0.07304278	          0.00000000	          0.00000000	          0.00000000	          0.00000000	         -0.03208297	          0.00000000	
          2.67300000	          0.00000000	          0.00000000	          0.00000000	          0.00000000	          0.00000000	          0.00000000	          1.31603476	        112.90566484	        -16.00162236	         -0.34584330	          0.00000000	         -0.07589763	          0.00000000	          0.00000000	          0.00000000	          0.00000000	         -0.01228132	          0.00000000	
          2.67400000	          0.00000000	          0.00000000	          0.00000000	          0.00000000	          0.00000000	          0.00000000	          2.65221639	        144.50909609	        -17.24342126	         -0.34334534	          0.00000000	         -0.07800373	          0.00000000	          0.00000000	          0.00000000	          0.00000000	          0.01205176	          0.00000000	
          2.67500000	          0.00000000	          0.00000000	          0.00000000	          0.00000000	          0.00000000	          0.00000000	          4.00818409	        181.47195852	        -18.02254321	         -0.34152833	          0.00000000	         -0.07952881	          0.00000000	          0.00000000	          0.00000000	          0.00000000	          0.03423413	          0.00000000	
          2.67600000	          0.00000000	          0.00000000	          0.00000000	          0.00000000	          0.00000000	          0.00000000	          5.10892206	        222.09079904	        -18.21823594	         -0.34006301	          0.00000000	         -0.08061131	          0.00000000	          0.00000000	          0.00000000	          0.00000000	          0.06231892	          0.00000000	
